<?xml version="1.0" encoding="UTF-8"?>
<svg width="800" height="200" viewBox="0 0 800 200" fill="none" xmlns="http://www.w3.org/2000/svg">
  <!-- O -->
  <path d="M 60 100 
           m -50 0 
           a 50 50 0 1 0 100 0 
           a 50 50 0 1 0 -100 0 
           m 20 0 
           a 30 30 0 1 1 60 0 
           a 30 30 0 1 1 -60 0" 
        fill="black"/>
  
  <!-- O -->
  <path d="M 180 100 
           m -50 0 
           a 50 50 0 1 0 100 0 
           a 50 50 0 1 0 -100 0 
           m 20 0 
           a 30 30 0 1 1 60 0 
           a 30 30 0 1 1 -60 0" 
        fill="black"/>
  
  <!-- I -->
  <rect x="295" y="50" width="30" height="100" fill="black"/>
  
  <!-- N -->
  <path d="M 370 50 L 370 150 L 400 150 L 400 85 L 470 150 L 500 150 L 500 50 L 470 50 L 470 115 L 400 50 Z" 
        fill="black"/>
  
  <!-- Q (with tail) -->
  <path d="M 580 100 
           m -50 0 
           a 50 50 0 1 0 100 0 
           a 50 50 0 1 0 -100 0 
           m 20 0 
           a 30 30 0 1 1 60 0 
           a 30 30 0 1 1 -60 0 
           M 620 135 
           Q 635 150 650 165 
           L 665 150 
           Q 650 135 635 120" 
        fill="black"/>
</svg>
