<?xml version="1.0" encoding="UTF-8"?>
<svg width="1200" height="400" viewBox="0 0 1200 400" fill="none" xmlns="http://www.w3.org/2000/svg">
  <!-- O -->
  <path d="M 80 200 
           m -60 0 
           a 60 60 0 1 0 120 0 
           a 60 60 0 1 0 -120 0 
           m 15 0 
           a 45 45 0 1 1 90 0 
           a 45 45 0 1 1 -90 0" 
        fill="white"/>
  
  <!-- O -->
  <path d="M 230 200 
           m -60 0 
           a 60 60 0 1 0 120 0 
           a 60 60 0 1 0 -120 0 
           m 15 0 
           a 45 45 0 1 1 90 0 
           a 45 45 0 1 1 -90 0" 
        fill="white"/>
  
  <!-- I -->
  <rect x="375" y="140" width="18" height="120" fill="white"/>
  
  <!-- N -->
  <path d="M 450 140 L 450 260 L 468 260 L 468 173 L 535 260 L 553 260 L 553 140 L 535 140 L 535 227 L 468 140 Z" 
        fill="white"/>
  
  <!-- Q (with tail) -->
  <path d="M 650 200 
           m -60 0 
           a 60 60 0 1 0 120 0 
           a 60 60 0 1 0 -120 0 
           m 15 0 
           a 45 45 0 1 1 90 0 
           a 45 45 0 1 1 -90 0 
           M 695 240 
           Q 710 255 725 270 
           L 735 260 
           Q 720 245 705 230" 
        fill="white"/>
</svg>
